# AST/ASF file generated using VICON BodyLanguage
# -----------------------------------------------
:version 1.10
:name VICON
:units
  mass 1.0
  length 0.45
  angle deg
:documentation
   .ast/.asf automatically generated from VICON data using
   VICON BodyBuilder and BodyLanguage model FoxedUp or BRILLIANT.MOD
:root
   order TX TY TZ RX RY RZ
   axis XYZ
   position 0 0 0  
   orientation 0 0 0 
:bonedata
  begin
     id 1 
     name lhipjoint
     direction 0.560651 -0.75055 0.34978 
     length 2.44936 
     axis 0 0 0  XYZ
  end
  begin
     id 2 
     name lfemur
     direction 0.34202 -0.939693 0  
     length 7.42139  
     axis 0 0 20  XYZ
    dof rx ry rz
    limits (-160.0 20.0)
           (-70.0 70.0)
           (-60.0 70.0)
  end
  begin
     id 3 
     name ltibia
     direction 0.34202 -0.939693 0   
     length 7.75674   
     axis 0 0 20   XYZ
    dof rx
    limits (-10.0 170.0)
  end
  begin
     id 4 
     name lfoot
     direction 0.0925879 -0.254383 0.962661   
     length 2.38688   
     axis -90 7.62852e-016 20   XYZ
    dof rx rz
    limits (-45.0 90.0)
           (-70.0 20.0)
  end
  begin
     id 5 
     name ltoes
     direction 1.53567e-011 -4.21973e-011 1   
     length 1.19228   
     axis -90 7.62852e-016 20   XYZ
    dof rx
    limits (-90.0 20.0)
  end
  begin
     id 6 
     name rhipjoint
     direction -0.540087 -0.762838 0.355506   
     length 2.4099  
     axis 0 0 0  XYZ 
  end
  begin
     id 7 
     name rfemur
     direction -0.34202 -0.939693 0   
     length 7.70794   
     axis 0 0 -20   XYZ
    dof rx ry rz
    limits (-160.0 20.0)
           (-70.0 70.0)
           (-70.0 60.0)
  end
  begin
     id 8 
     name rtibia
     direction -0.34202 -0.939693 0   
     length 7.66106   
     axis 0 0 -20   XYZ
    dof rx
    limits (-10.0 170.0)
 end
 begin
     id 9 
     name rfoot
     direction -0.0830975 -0.228308 0.970036   
     length 2.4989  
     axis -90 -7.62852e-016 -20   XYZ
    dof rx rz
    limits (-45.0 90.0)
           (-20.0 70.0)
  end
  begin
     id 10 
     name rtoes
     direction -1.53517e-011 -4.21842e-011 1   
     length 1.2498   
     axis -90 -7.62852e-016 -20   XYZ
    dof rx
    limits (-90.0 20.0)
  end
  begin
     id 11 
     name lowerback
     direction 0.0266356 0.99402 -0.105896   
     length 2.1545   
     axis 0 0 0   XYZ
    dof rx ry rz
    limits (-20.0 45.0)
           (-30.0 30.0)
           (-30.0 30.0)
  end
  begin
     id 12 
     name upperback
     direction 0.0130547 0.999192 0.0380027   
     length 2.1434   
     axis 0 0 0   XYZ
    dof rx ry rz
    limits (-20.0 45.0)
           (-30.0 30.0)
           (-30.0 30.0)
  end
  begin
     id 13 
     name thorax
     direction 0.000590299 0.996288 0.0860764   
     length 2.19049   
     axis 0 0 0   XYZ
    dof rx ry rz
    limits (-20.0 45.0)
           (-30.0 30.0)
           (-30.0 30.0)
  end
  begin
     id 14 
     name lowerneck
     direction -0.0432125 0.978219 0.203028   
     length 1.62441   
     axis 0 0 0   XYZ
    dof rx ry rz
    limits (-20.0 45.0)
           (-30.0 30.0)
           (-30.0 30.0)
  end
  begin
     id 15 
     name upperneck
     direction -0.0192309 0.991699 -0.127138   
     length 1.66666   
     axis 0 0 0   XYZ
    dof rx ry rz
    limits (-20.0 45.0)
           (-30.0 30.0)
           (-30.0 30.0)
  end
  begin
     id 16
     name head
     direction -0.00434499 0.997882 -0.0649107  
     length 1.67142  
     axis 0 0 0   XYZ
    dof rx ry rz
    limits (-20.0 45.0)
           (-30.0 30.0)
           (-30.0 30.0)
  end
  begin
     id 17 
     name lclavicle
     direction 0.970351 0.240904 -0.0196058  
     length 4.04862  
     axis 0 0 0   XYZ
    dof ry rz
    limits (-20.0 10.0)
           (0.0 20.0)
  end
  begin
     id 18 
     name lhumerus
     direction 1 -4.4896e-011 -1.40911e-018   
     length 5.58345   
     axis 180 -30 -90   XYZ
    dof rx ry rz
    limits (-60.0 90.0)
           (-90.0 90.0)
           (-90.0 90.0)
  end
  begin
     id 19
     name lradius
     direction 1 -4.48968e-011 5.88912e-028   
     length 3.71087   
     axis 180 -30 -90   XYZ
    dof rx
    limits (-10.0 170.0)
  end
  begin
     id 20
     name lwrist
     direction 1 -4.48955e-011 -8.83775e-028   
     length 1.85544   
     axis 5.52448e-016 90 90   XYZ
    dof ry
    limits (-180.0 0.0)
 end
  begin
     id 21 
     name lhand
     direction 1 -4.49035e-011 -1.76755e-027   
     length 0.562322   
     axis 1.12785e-015 90 90   XYZ
    dof rx rz
    limits (-90.0 90.0)
           (-45.0 45.0)
  end
  begin
     id 22 
     name lfingers
     direction 1 -4.48824e-011 -3.5351e-027   
     length 0.453359   
     axis 2.2557e-015 90 90   XYZ
    dof rx
    limits (0.0 90.0)
  end
  begin
     id 23
     name lthumb
     direction 0.707107 -6.34888e-011 0.707107   
     length 0.650935   
     axis -90 45 2.85299e-015   XYZ
    dof rx rz
    limits (-45.0 45.0)
           (-45.0 45.0)
  end
  begin
     id 24 
     name rclavicle
     direction -0.96165 0.268562 -0.0557131   
     length 4.05446  
     axis 0 0 0   XYZ 
    dof ry rz
    limits (-10.0 20.0)
           (-20.0 0.0)
  end
  begin
     id 25 
     name rhumerus
     direction -1 -4.48957e-011 -3.36329e-027  
     length 5.20357   
     axis 180 30 90   XYZ
    dof rx ry rz
    limits (-90.0 60.0)
           (-90.0 90.0)
           (-90.0 90.0)
  end
  begin
     id 26 
     name rradius
     direction -1 -4.48974e-011 4.51441e-027   
     length 3.64937   
     axis 180 30 90   XYZ
    dof rx
    limits (-10.0 170.0)
  end
  begin
     id 27 
     name rwrist
     direction -1 -4.4896e-011 -8.83775e-028   
     length 1.82468   
     axis 5.52448e-016 -90 -90   XYZ
    dof ry
    limits (-180.0 0.0)
  end
  begin
     id 28
     name rhand
     direction -1 -4.48996e-011 -1.76755e-027   
     length 0.617996   
     axis 1.12785e-015 -90 -90   XYZ
    dof rx rz
    limits (-90.0 90.0)
           (-45.0 45.0)
  end
  begin
     id 29
     name rfingers
     direction -1 -4.48957e-011 -3.5351e-027   
     length 0.498244   
     axis 2.2557e-015 -90 -90   XYZ
    dof rx
    limits (0.0 90.0)
  end
  begin
     id 30
     name rthumb
     direction -0.707107 -6.34931e-011 0.707107   
     length 0.715382   
     axis -90 -45 -2.85299e-015   XYZ
    dof rx rz
    limits (-45.0 45.0)
           (-45.0 45.0)
  end
:hierarchy
  begin
    root lhipjoint rhipjoint lowerback
    lhipjoint lfemur
    lfemur ltibia
    ltibia lfoot
    lfoot ltoes
    rhipjoint rfemur
    rfemur rtibia
    rtibia rfoot
    rfoot rtoes
    lowerback upperback
    upperback thorax
    thorax lowerneck lclavicle rclavicle
    lowerneck upperneck
    upperneck head
    lclavicle lhumerus
    lhumerus lradius
    lradius lwrist
    lwrist lhand lthumb
    lhand lfingers
    rclavicle rhumerus
    rhumerus rradius
    rradius rwrist
    rwrist rhand rthumb
    rhand rfingers
  end

#!OML:ASF H:\ManfredETheater\Project 1\Capture day 2\Session 1\Male1.ASF
:FULLY-SPECIFIED
:DEGREES
79
root 1.68727 17.3702 11.3606 -10.5 8.00964 -3.24178
lowerback 13.5485 -0.0219131 4.09137
upperback -0.200334 0.877936 3.1092
thorax -7.83015 0.334309 0.824355
lowerneck -21.71 -1.71804 -3.02671
upperneck 24.858 -0.295288 -3.57733
head 11.7706 -0.900968 -0.874611
rclavicle 2.72335e-014 1.35174e-014
rhumerus -29.9325 -1.7798 -80.7117
rradius 53.642
rwrist -1.77417
rhand -33.0553 -6.84157
rfingers 7.12502
rthumb -6.26755 -36.7289
lclavicle 2.72335e-014 1.35174e-014
lhumerus -43.8737 4.43403 87.6567
lradius 59.7049
lwrist 5.14611
lhand -24.8932 5.83817
lfingers 7.12502
lthumb 1.61472 35.8118
rfemur -18.2856 -5.06631 25.1935
rtibia 43.2916
rfoot -6.88114 -3.21099
rtoes 7.81242
lfemur -19.4388 -4.97583 -15.4584
ltibia 40.1581
lfoot -4.93901 -8.71795
ltoes 5.3467
80
root 1.69169 17.433 11.4901 -10.1473 7.70503 -3.11389
lowerback 13.1274 0.0296288 3.97967
upperback -0.251484 0.902837 3.09992
thorax -7.64737 0.352408 0.872359
lowerneck -21.6375 -1.63932 -2.91813
upperneck 24.8283 -0.189577 -3.70496
head 11.7453 -0.859048 -0.921789
rclavicle 3.66758e-014 -3.18055e-014
rhumerus -29.5163 -2.2297 -80.7795
rradius 52.4366
rwrist -1.45564
rhand -32.8992 -6.84659
rfingers 7.12502
rthumb -6.11689 -36.7383
lclavicle 3.66758e-014 -3.18055e-014
lhumerus -44.0426 4.02587 87.6112
lradius 58.7046
lwrist 4.45683
lhand -24.2964 6.02541
lfingers 7.12502
lthumb 2.19109 35.9939
rfemur -17.8292 -4.93416 25.1652
rtibia 42.6576
rfoot -6.90122 -3.08877
rtoes 7.97161
lfemur -18.8121 -4.98698 -15.4764
ltibia 39.4334
lfoot -5.04369 -8.39791
ltoes 4.86709
81
root 1.69956 17.4959 11.6168 -9.70084 7.47772 -2.83829
lowerback 12.6844 0.0658901 3.77274
upperback -0.388491 0.892146 3.02714
thorax -7.54475 0.353828 0.914382
lowerneck -21.5152 -1.54317 -2.86066
upperneck 24.8625 -0.065052 -3.74887
head 11.7353 -0.80304 -0.926613
rclavicle -1.16786e-014 0
rhumerus -29.2751 -2.76487 -80.8483
rradius 51.2909
rwrist -1.05472
rhand -32.2953 -7.27579
rfingers 7.12502
rthumb -5.53384 -37.1835
lclavicle -1.16786e-014 0
lhumerus -44.3415 3.60025 87.5725
lradius 57.7345
lwrist 3.6402
lhand -21.9972 5.86019
lfingers 7.12502
lthumb 4.41145 35.7942
rfemur -17.4551 -4.92803 24.936
rtibia 42
rfoot -6.90742 -2.86555
rtoes 8.05667
lfemur -18.3079 -5.0751 -15.7017
ltibia 38.7414
lfoot -5.14978 -8.03306
ltoes 4.37093
82
root 1.70566 17.5564 11.7407 -9.25442 7.19626 -2.74317
lowerback 12.1481 0.118759 3.72944
upperback -0.448809 0.925184 3.02017
thorax -7.30502 0.373785 0.92561
lowerneck -21.5377 -1.49352 -2.75675
upperneck 24.8548 0.0136929 -3.90029
head 11.7376 -0.778072 -0.987819
rclavicle -3.50358e-014 -1.19271e-014
rhumerus -28.889 -3.35193 -80.8618
rradius 50.1141
rwrist -0.686872
rhand -32.1627 -7.1889
rfingers 7.12502
rthumb -5.40586 -37.0999
lclavicle -3.50358e-014 -1.19271e-014
lhumerus -44.4786 3.15493 87.606
lradius 56.7733
lwrist 2.62542
lhand -19.8867 6.21473
lfingers 7.12502
lthumb 6.44916 36.0965
rfemur -17.0827 -4.81548 24.9233
rtibia 41.2764
rfoot -6.89996 -2.69317
rtoes 8.03379
lfemur -17.8649 -5.20559 -15.699
ltibia 38.0536
lfoot -5.227 -7.66859
ltoes 4.24937
83
root 1.71226 17.616 11.8641 -8.82322 7.00122 -2.67169
lowerback 11.6062 0.116646 3.71326
upperback -0.559387 0.891088 3.00666
thorax -7.11589 0.358968 0.927557
lowerneck -21.4018 -1.40258 -2.69221
upperneck 24.8322 0.133355 -3.97124
head 11.7035 -0.72589 -1.00377
rclavicle 3.08613e-014 3.73715e-014
rhumerus -28.6839 -3.98808 -80.899
rradius 49.0226
rwrist -0.298412
rhand -31.9565 -7.12233
rfingers 7.12502
rthumb -5.20676 -37.0384
lclavicle 3.08613e-014 3.73715e-014
lhumerus -44.7911 2.74486 87.5834
lradius 55.8696
lwrist 1.43867
lhand -17.8448 6.29209
lfingers 7.12502
lthumb 8.42016 36.1042
rfemur -16.6695 -4.77815 24.9011
rtibia 40.5016
rfoot -6.89169 -2.51726
rtoes 8.26424
lfemur -17.4245 -5.35151 -15.6936
ltibia 37.3376
lfoot -5.33261 -7.39323
ltoes 4.1408
84
root 1.71964 17.6728 11.984 -8.38343 6.81939 -2.57499
lowerback 11.0935 0.0920715 3.66746
upperback -0.684687 0.824799 2.97819
thorax -6.959 0.328693 0.935645
lowerneck -21.3242 -1.27918 -2.58689
upperneck 24.8506 0.285953 -4.03006
head 11.6968 -0.654665 -1.01808
rclavicle -3.18055e-015 -3.57812e-014
rhumerus -28.5297 -4.5781 -80.9742
rradius 47.9493
rwrist 0.0644158
rhand -31.7879 -7.11199
rfingers 7.12502
rthumb -5.04395 -37.032
lclavicle -3.18055e-015 -3.57812e-014
lhumerus -45.2118 2.27673 87.554
lradius 55.1216
lwrist 0.227832
lhand -15.9247 6.19937
lfingers 7.12502
lthumb 10.2728 35.9285
rfemur -16.2516 -4.71813 24.8499
rtibia 39.689
rfoot -6.90056 -2.37146
rtoes 8.32469
lfemur -17.0056 -5.47674 -15.7233
ltibia 36.6153
lfoot -5.43908 -7.15705
ltoes 3.75817
85
root 1.7234 17.7231 12.1025 -8.03888 6.61286 -2.67597
lowerback 10.6406 0.0631217 3.76404
upperback -0.787732 0.77946 3.02508
thorax -6.81149 0.304987 0.939149
lowerneck -21.3022 -1.17561 -2.48291
upperneck 24.9157 0.42215 -4.11102
head 11.7192 -0.595357 -1.04446
rclavicle 1.56543e-014 -1.90833e-014
rhumerus -28.3862 -5.14671 -81.0054
rradius 46.9296
rwrist 0.321419
rhand -31.6116 -7.42135
rfingers 7.12502
rthumb -4.87375 -37.3453
lclavicle 1.56543e-014 -1.90833e-014
lhumerus -45.6744 1.71702 87.6157
lradius 54.5121
lwrist -0.917598
lhand -14.2314 6.34071
lfingers 7.12502
lthumb 11.906 35.9822
rfemur -15.7498 -4.54472 25.0364
rtibia 38.8574
rfoot -6.96445 -2.35454
rtoes 8.47229
lfemur -16.5336 -5.57462 -15.5212
ltibia 35.9257
lfoot -5.57479 -6.9544
ltoes 3.52947
86
root 1.72965 17.7676 12.22 -7.71487 6.46554 -2.67601
lowerback 10.1974 0.0346024 3.78812
upperback -0.86945 0.722117 3.04172
thorax -6.64693 0.277752 0.952636
lowerneck -21.206 -1.08152 -2.36697
upperneck 24.8662 0.544976 -4.23568
head 11.6835 -0.543652 -1.08879
rclavicle 0 -3.57812e-014
rhumerus -28.2351 -5.70563 -80.9889
rradius 45.9
rwrist 0.554877
rhand -31.4198 -7.42294
rfingers 7.12502
rthumb -4.68849 -37.3511
lclavicle 0 -3.57812e-014
lhumerus -45.9806 1.28046 87.6803
lradius 53.751
lwrist -2.11474
lhand -12.3294 6.4627
lfingers 7.12502
lthumb 13.7396 35.9891
rfemur -15.2182 -4.42204 25.0864
rtibia 38.0396
rfoot -7.06831 -2.33887
rtoes 8.7202
lfemur -16.0412 -5.68876 -15.4729
ltibia 35.2852
lfoot -5.75916 -6.69942
ltoes 3.5151
87
root 1.73337 17.8046 12.3291 -7.38143 6.39677 -2.79109
lowerback 9.86027 -0.0227214 3.9159
upperback -1.01095 0.649532 3.0765
thorax -6.60572 0.237845 0.929688
lowerneck -21.1647 -1.00149 -2.2817
upperneck 24.9144 0.645213 -4.29022
head 11.6955 -0.4982 -1.10763
rclavicle 7.05686e-015 4.69132e-014
rhumerus -28.1971 -6.25102 -80.9904
rradius 44.965
rwrist 0.601641
rhand -31.2056 -7.70127
rfingers 7.12502
rthumb -4.4817 -37.6339
lclavicle 7.05686e-015 4.69132e-014
lhumerus -46.278 0.900243 87.7426
lradius 52.992
lwrist -3.59657
lhand -10.8853 6.67159
lfingers 7.12502
lthumb 15.1309 36.0985
rfemur -14.7494 -4.31615 25.2742
rtibia 37.2412
rfoot -7.18848 -2.40843
rtoes 8.6991
lfemur -15.665 -5.77508 -15.3021
ltibia 34.7166
lfoot -5.96508 -6.49041
ltoes 3.72431
88
root 1.73307 17.8371 12.4353 -7.05274 6.46911 -2.88945
lowerback 9.48521 -0.12338 3.9554
upperback -1.13177 0.505258 3.12324
thorax -6.52248 0.166841 0.978735
lowerneck -21.1368 -0.929819 -2.1911
upperneck 24.935 0.734483 -4.35687
head 11.6996 -0.458404 -1.13338
rclavicle -5.96354e-015 -2.3059e-014
rhumerus -28.1933 -6.73886 -81.0009
rradius 44.1314
rwrist 0.458446
rhand -31.3919 -7.71799
rfingers 7.12502
rthumb -4.66152 -37.6467
lclavicle -5.96354e-015 -2.3059e-014
lhumerus -46.5173 0.473975 87.8634
lradius 52.1613
lwrist -4.76953
lhand -8.60507 6.40297
lfingers 7.12502
lthumb 17.3266 35.6506
rfemur -14.3017 -4.23913 25.4416
rtibia 36.4881
rfoot -7.3861 -2.5962
rtoes 8.75998
lfemur -15.3418 -5.82382 -15.1707
ltibia 34.1873
lfoot -6.17975 -6.3819
ltoes 3.90772
89
root 1.73973 17.8675 12.5494 -6.76922 6.29772 -2.85513
lowerback 9.06508 -0.146583 3.91153
upperback -1.21931 0.447428 3.13686
thorax -6.37685 0.141345 1.02516
lowerneck -21.0656 -0.835479 -2.05965
upperneck 24.9538 0.84543 -4.44214
head 11.6952 -0.406808 -1.16903
rclavicle 1.18277e-014 3.97569e-015
rhumerus -28.2001 -7.02463 -81.0398
rradius 43.2821
rwrist 0.149562
rhand -31.5054 -8.0229
rfingers 7.12502
rthumb -4.77115 -37.9492
lclavicle 1.18277e-014 3.97569e-015
lhumerus -46.7964 0.0501837 88.0177
lradius 51.4356
lwrist -5.73422
lhand -7.46456 6.69622
lfingers 7.12502
lthumb 18.424 35.8437
rfemur -13.7901 -4.00806 25.4712
rtibia 35.7879
rfoot -7.61801 -2.6952
rtoes 8.79258
lfemur -14.8714 -5.84004 -15.2032
ltibia 33.6873
lfoot -6.50622 -6.00863
ltoes 4.11005
90
root 1.74873 17.8954 12.6587 -6.44093 6.15264 -2.78803
lowerback 8.6672 -0.156963 3.90179
upperback -1.32407 0.410891 3.11621
thorax -6.26116 0.123884 1.01328
lowerneck -21.1065 -0.768528 -1.96951
upperneck 25.0364 0.929313 -4.49169
head 11.7368 -0.369197 -1.19085
rclavicle -5.96354e-015 2.94201e-014
rhumerus -28.235 -7.34426 -81.0394
rradius 42.5425
rwrist -0.315844
rhand -31.398 -8.44232
rfingers 7.12502
rthumb -4.66744 -38.3709
lclavicle -5.96354e-015 2.94201e-014
lhumerus -47.0639 -0.437177 88.1809
lradius 50.8708
lwrist -6.67626
lhand -5.62942 7.18916
lfingers 7.12502
lthumb 20.1886 36.1601
rfemur -13.3779 -3.79862 25.4485
rtibia 35.1413
rfoot -7.84151 -2.77536
rtoes 8.95492
lfemur -14.4717 -5.89956 -15.2952
ltibia 33.2064
lfoot -6.82103 -5.57211
ltoes 4.36158
